<svg width="18" height="19" viewBox="0 0 18 19" fill="none" xmlns="http://www.w3.org/2000/svg">
<g clip-path="url(#clip0_0_378)">
<path d="M17.6293 3.51893H7.13207C7.05854 3.51172 6.98457 3.52573 6.91732 3.55961C6.85007 3.59348 6.7918 3.64608 6.74814 3.71232C6.70448 3.77856 6.6769 3.85621 6.66806 3.93777C6.65923 4.01934 6.66944 4.10206 6.69771 4.17795L8.35814 9.59086C8.40652 9.74027 8.49379 9.87025 8.60881 9.96424C8.72383 10.0582 8.8614 10.112 9.00398 10.1186H15.8856C16.0283 10.112 16.1659 10.0582 16.2811 9.96422C16.3962 9.8702 16.4835 9.74018 16.532 9.59071L17.9781 4.04818C18.0008 3.98721 18.0089 3.9208 18.0017 3.85533C17.9946 3.78986 17.9724 3.72753 17.9374 3.67435C17.9024 3.62117 17.8556 3.57893 17.8016 3.55168C17.7477 3.52443 17.6883 3.51311 17.6293 3.51879V3.51893Z" fill="black"/>
<path d="M9.6517 16.3549C9.6517 16.7004 9.55962 17.0382 9.38711 17.3256C9.21459 17.6129 8.96939 17.8368 8.68252 17.9691C8.39564 18.1013 8.07997 18.1359 7.77542 18.0685C7.47087 18.0011 7.19113 17.8347 6.97156 17.5903C6.75199 17.346 6.60246 17.0347 6.54189 16.6957C6.48131 16.3568 6.5124 16.0055 6.63123 15.6862C6.75006 15.367 6.95129 15.0941 7.20947 14.9021C7.46765 14.7101 7.77119 14.6077 8.08171 14.6077C8.28788 14.6077 8.49204 14.6529 8.68252 14.7407C8.873 14.8285 9.04607 14.9572 9.19186 15.1194C9.33764 15.2817 9.45329 15.4743 9.53219 15.6862C9.61109 15.8982 9.6517 16.1254 9.6517 16.3549Z" fill="black"/>
<path d="M16.2956 16.3761C16.2956 16.7217 16.2035 17.0595 16.031 17.3468C15.8585 17.6341 15.6133 17.8581 15.3264 17.9903C15.0395 18.1226 14.7238 18.1572 14.4193 18.0898C14.1147 18.0223 13.835 17.8559 13.6154 17.6116C13.3959 17.3672 13.2463 17.0559 13.1857 16.717C13.1252 16.3781 13.1563 16.0267 13.2751 15.7075C13.3939 15.3882 13.5951 15.1154 13.8533 14.9234C14.1115 14.7314 14.4151 14.6289 14.7256 14.6289C15.1419 14.6291 15.5411 14.8133 15.8355 15.1409C16.1299 15.4685 16.2953 15.9128 16.2956 16.3761Z" fill="black"/>
<path d="M16.6117 11.8963H7.42712L3.7512 0.125H0.889124C0.653314 0.125 0.427162 0.229249 0.260418 0.414815C0.0936753 0.60038 0 0.85206 0 1.11449C0 1.37692 0.0936753 1.6286 0.260418 1.81416C0.427162 1.99973 0.653314 2.10398 0.889124 2.10398H2.48689L6.16281 13.8752H16.6117C16.7285 13.8752 16.8441 13.8497 16.952 13.7999C17.0598 13.7502 17.1578 13.6773 17.2404 13.5854C17.323 13.4936 17.3885 13.3845 17.4331 13.2644C17.4778 13.1444 17.5008 13.0157 17.5008 12.8858C17.5008 12.7558 17.4778 12.6271 17.4331 12.5071C17.3885 12.387 17.323 12.278 17.2404 12.1861C17.1578 12.0942 17.0598 12.0213 16.952 11.9716C16.8441 11.9219 16.7285 11.8963 16.6117 11.8963Z" fill="black"/>
</g>
<defs>
<clipPath id="clip0_0_378">
<rect width="18" height="18" fill="white" transform="translate(0 0.125)"/>
</clipPath>
</defs>
</svg>
