<svg width="55" height="88" viewBox="0 0 55 88" fill="none" xmlns="http://www.w3.org/2000/svg">
<path d="M38.9417 14.759H35.8929C35.4771 14.759 35.1307 15.1055 35.1307 15.5212V35.7543V35.8236C35.1307 40.0504 31.7354 43.4456 27.5086 43.4456C23.2819 43.4456 19.8866 40.0504 19.8866 35.8236V35.7543V15.5212C19.8866 15.1055 19.5401 14.759 19.1244 14.759H16.0756C15.6598 14.759 15.3134 15.1055 15.3134 15.5212V35.8236C15.3134 42.4756 20.6488 47.8803 27.3008 48.0189H27.5779H27.8551C34.4378 47.8803 39.8425 42.4756 39.8425 35.8236V15.5212C39.7732 15.1055 39.4267 14.759 38.9417 14.759Z" fill="black"/>
<path d="M53.7701 0.2771H1.31651C0.762184 0.2771 0.346436 0.692848 0.346436 1.24718V41.9905V46.7716V87.0299C0.346436 87.5842 0.762184 87.9999 1.31651 87.9999H53.7701C54.3244 87.9999 54.7401 87.5842 54.7401 87.0299V46.7716V41.9905V1.24718C54.7401 0.692848 54.3244 0.2771 53.7701 0.2771ZM4.78108 5.68182V5.19678C4.78108 4.91962 4.98896 4.64245 5.33541 4.64245H5.82045H49.4047H49.8897C50.1669 4.64245 50.4441 4.85033 50.4441 5.19678V5.68182V44.9007L28.3401 67.0047L27.9937 67.3511C27.7858 67.559 27.4394 67.559 27.2315 67.3511L26.885 67.0047L4.78108 44.9007V5.68182ZM50.3055 82.5952V83.0802C50.3055 83.3574 50.0976 83.6346 49.7512 83.6346H49.2661H5.75116H5.26612C4.98896 83.6346 4.71179 83.4267 4.71179 83.0802V82.5952V51.1369L26.8157 73.2409C27.1622 73.5873 27.7858 73.5873 28.2016 73.2409L50.3055 51.1369V82.5952Z" fill="black"/>
</svg>
