<svg width="265" height="42" viewBox="0 0 265 42" fill="none" xmlns="http://www.w3.org/2000/svg">
<path fill-rule="evenodd" clip-rule="evenodd" d="M27.7888 1.56226H24.219C23.7193 1.56226 23.313 1.96821 23.313 2.46996V26.2689L23.2965 26.3406C23.2965 31.2878 19.282 35.3136 14.347 35.3136C9.41202 35.3136 5.39749 31.2878 5.39749 26.3406L5.38099 26.2689V2.46996C5.38099 1.96821 4.97473 1.56226 4.47497 1.56226H0.905209C0.404768 1.56226 -0.00012207 1.96821 -0.00012207 2.46996V26.3406C-0.00012207 34.1688 6.27051 40.5517 14.039 40.7171C14.1415 40.7198 14.2439 40.7253 14.347 40.7253C14.4501 40.7253 14.5525 40.7198 14.6556 40.7171C22.4235 40.5517 28.6941 34.1688 28.6941 26.3406V2.46996C28.6941 1.96821 28.2892 1.56226 27.7888 1.56226Z" fill="black"/>
<path fill-rule="evenodd" clip-rule="evenodd" d="M81.5404 20.7196H63.3353C62.8307 20.7196 62.4225 21.1193 62.4225 21.6119V24.8269C62.4225 25.3201 62.8307 25.7199 63.3353 25.7199H72.7753C72.539 26.9028 72.1752 28.0032 71.6907 29.0005C71.0801 30.2553 70.2533 31.3441 69.2338 32.2398C68.2144 33.1356 66.9634 33.8422 65.5115 34.3402C64.0443 34.8443 62.3497 35.1004 60.475 35.1004C58.0286 35.1004 55.8586 34.6804 54.0276 33.8531C52.1896 33.0231 50.6399 31.9167 49.4167 30.5656C48.1872 29.2065 47.2446 27.6319 46.6133 25.8845C45.977 24.1242 45.6548 22.2698 45.6548 20.3713C45.6548 18.4092 45.9937 16.4972 46.6625 14.6874C47.3292 12.8858 48.2912 11.2835 49.5206 9.92431C50.7459 8.57058 52.2651 7.46687 54.0359 6.64636C55.7962 5.82925 57.8144 5.41527 60.0329 5.41527C61.428 5.41527 62.7566 5.58736 63.984 5.92613C65.2093 6.26423 66.3036 6.72428 67.2358 7.29274C68.1499 7.85036 68.9296 8.52925 69.5506 9.31046C70.1729 10.0937 70.6283 10.9244 70.9048 11.7794C71.0247 12.1507 71.3768 12.4034 71.7746 12.4034H75.4076C75.6827 12.4034 75.9433 12.2808 76.1166 12.0714C76.2912 11.8621 76.357 11.587 76.2995 11.3234C75.9648 9.79693 75.3209 8.34903 74.3874 7.01698C73.4573 5.69442 72.2653 4.52904 70.8466 3.5527C69.4362 2.58179 67.7895 1.81616 65.9515 1.27548C64.1226 0.73887 62.1141 0.46582 59.983 0.46582C56.9328 0.46582 54.1606 1.02683 51.7391 2.13257C49.3307 3.2329 47.2377 4.72553 45.5203 6.56709C43.8016 8.40865 42.4757 10.5565 41.5762 12.9502C40.6821 15.3338 40.2296 17.8475 40.2296 20.4222C40.2296 22.9453 40.6648 25.4068 41.5242 27.7376C42.3877 30.0826 43.6879 32.1972 45.3907 34.0238C47.0949 35.8525 49.2164 37.3377 51.6975 38.438C54.1828 39.541 57.0922 40.1 60.3454 40.1C62.9187 40.1 65.2772 39.7328 67.3557 39.0112C69.4459 38.2835 71.2887 37.2374 72.8349 35.9013C74.3805 34.5652 75.646 32.9452 76.5989 31.088C77.4341 29.4599 78.0183 27.657 78.3426 25.7199H81.5404C82.0449 25.7199 82.4531 25.3201 82.4531 24.8269V21.6119C82.4531 21.1193 82.0449 20.7196 81.5404 20.7196Z" fill="black"/>
<path fill-rule="evenodd" clip-rule="evenodd" d="M130.036 2.17505H126.52C126.152 2.17505 125.82 2.38688 125.675 2.71406C125.675 2.71406 113.165 29.6996 112.907 30.3432C112.798 30.6151 112.604 30.7743 112.393 30.7662C112.183 30.7743 111.988 30.6151 111.879 30.3432C111.621 29.6996 99.1117 2.71406 99.1117 2.71406C98.966 2.38688 98.6349 2.17505 98.2668 2.17505H94.7501C94.244 2.17505 93.8327 2.57307 93.8327 3.0635V39.2109C93.8327 39.702 94.244 40.1 94.7501 40.1H98.3714C98.8781 40.1 99.2894 39.702 99.2894 39.2109V17.6849C99.2894 17.2262 99.8485 17.235 99.967 17.5257C100.27 18.2718 110.074 39.5536 110.074 39.5536C110.215 39.8842 110.551 40.1 110.921 40.1H113.866C114.236 40.1 114.571 39.8842 114.712 39.5536C114.712 39.5536 124.516 18.2718 124.82 17.5257C124.938 17.235 125.497 17.2262 125.497 17.6849V39.2109C125.497 39.702 125.909 40.1 126.415 40.1H130.036C130.543 40.1 130.953 39.702 130.953 39.2109V3.0635C130.953 2.57307 130.543 2.17505 130.036 2.17505Z" fill="black"/>
<path fill-rule="evenodd" clip-rule="evenodd" d="M176.103 26.7509C175.451 28.5332 174.503 30.1329 173.287 31.5065C172.081 32.8725 170.573 33.9899 168.812 34.8277C167.059 35.66 165.068 36.0823 162.893 36.0823C160.684 36.0823 158.69 35.6607 156.966 34.8297C155.227 33.9919 153.738 32.8746 152.536 31.5085C151.328 30.1343 150.386 28.5338 149.734 26.7509C149.08 24.9619 148.747 23.0689 148.747 21.1248C148.747 19.1792 149.08 17.2767 149.734 15.4706C150.386 13.6713 151.328 12.0633 152.536 10.6904C153.738 9.32367 155.226 8.21115 156.963 7.38359C158.688 6.55945 160.684 6.14191 162.893 6.14191C165.085 6.14191 167.082 6.56013 168.826 7.38427C170.578 8.21388 172.08 9.32641 173.287 10.6925C174.503 12.0647 175.45 13.6719 176.102 15.4706C176.757 17.2774 177.09 19.1799 177.09 21.1248C177.09 23.0683 176.757 24.9612 176.103 26.7509ZM177.249 7.26195C175.568 5.42847 173.497 3.93668 171.092 2.82757C168.675 1.71436 165.917 1.1499 162.893 1.1499C159.872 1.1499 157.113 1.71436 154.692 2.82757C152.28 3.93668 150.203 5.42779 148.517 7.26058C146.831 9.09406 145.529 11.2439 144.648 13.6508C143.772 16.0467 143.327 18.5621 143.327 21.1248C143.327 23.7052 143.772 26.2241 144.648 28.6117C145.53 31.0097 146.831 33.1589 148.516 34.9999C150.201 36.8422 152.28 38.3388 154.692 39.4479C157.113 40.5604 159.872 41.1249 162.893 41.1249C165.917 41.1249 168.675 40.5604 171.092 39.4472C173.497 38.3388 175.57 36.8422 177.25 34.9992C178.927 33.1609 180.236 31.0097 181.144 28.607C182.05 26.209 182.51 23.6915 182.51 21.1248C182.51 18.5587 182.05 16.0419 181.144 13.6426C180.236 11.2385 178.925 9.09269 177.249 7.26195Z" fill="black"/>
<path fill-rule="evenodd" clip-rule="evenodd" d="M221.821 2.17505H218.259C217.76 2.17505 217.355 2.57307 217.355 3.0635V29.3118C217.355 29.5236 217.13 29.6477 216.954 29.3468C216.777 29.046 200.505 2.60342 200.505 2.60342C200.341 2.33763 200.049 2.17505 199.733 2.17505H195.786C195.288 2.17505 194.883 2.57307 194.883 3.0635V39.2109C194.883 39.702 195.288 40.1 195.786 40.1H199.347C199.846 40.1 200.25 39.702 200.25 39.2109V13.0504C200.25 12.6618 200.518 12.6895 200.621 12.8561C200.722 13.0227 217.101 39.671 217.101 39.671C217.265 39.9375 217.558 40.1 217.875 40.1H221.821C222.32 40.1 222.724 39.702 222.724 39.2109V3.0635C222.724 2.57307 222.32 2.17505 221.821 2.17505Z" fill="black"/>
<path fill-rule="evenodd" clip-rule="evenodd" d="M246.964 20.7838L264.26 3.10801C264.512 2.84971 264.586 2.46363 264.447 2.12879C264.308 1.79396 263.982 1.57666 263.622 1.57666H259.106C258.868 1.57666 258.639 1.67164 258.471 1.84179L243 17.5045V2.47661C243 1.97914 242.6 1.57666 242.106 1.57666H238.579C238.086 1.57666 237.685 1.97914 237.685 2.47661V39.0917C237.685 39.5891 238.086 39.9916 238.579 39.9916H242.106C242.6 39.9916 243 39.5891 243 39.0917V24.0638L258.471 39.7265C258.639 39.8966 258.868 39.9916 259.106 39.9916H263.622C263.982 39.9916 264.308 39.7736 264.447 39.4395C264.586 39.1053 264.512 38.7186 264.26 38.4596L246.964 20.7838Z" fill="black"/>
</svg>
