<svg width="32" height="28" viewBox="0 0 32 28" fill="none" xmlns="http://www.w3.org/2000/svg">
<path d="M16.0067 7.26172C11.7478 7.26172 8.31251 10.2676 8.31251 13.9941C8.31251 17.7207 11.7478 20.7266 16.0067 20.7266C20.2656 20.7266 23.7009 17.7207 23.7009 13.9941C23.7009 10.2676 20.2656 7.26172 16.0067 7.26172ZM16.0067 18.3711C13.2545 18.3711 11.0045 16.4082 11.0045 13.9941C11.0045 11.5801 13.2478 9.61718 16.0067 9.61718C18.7656 9.61718 21.0089 11.5801 21.0089 13.9941C21.0089 16.4082 18.7589 18.3711 16.0067 18.3711ZM25.8103 6.98633C25.8103 7.85937 25.0067 8.55664 24.0156 8.55664C23.0179 8.55664 22.221 7.85351 22.221 6.98633C22.221 6.11914 23.0246 5.41601 24.0156 5.41601C25.0067 5.41601 25.8103 6.11914 25.8103 6.98633ZM30.9062 8.58007C30.7924 6.47656 30.2433 4.61328 28.4821 3.07812C26.7277 1.54297 24.5982 1.0625 22.1942 0.957031C19.7165 0.833984 12.2902 0.833984 9.81251 0.957031C7.41519 1.05664 5.28573 1.53711 3.52457 3.07226C1.76341 4.60742 1.221 6.4707 1.10046 8.57421C0.959839 10.7422 0.959839 17.2402 1.10046 19.4082C1.2143 21.5117 1.76341 23.375 3.52457 24.9101C5.28573 26.4453 7.4085 26.9258 9.81251 27.0312C12.2902 27.1543 19.7165 27.1543 22.1942 27.0312C24.5982 26.9316 26.7277 26.4512 28.4821 24.9101C30.2366 23.375 30.7857 21.5117 30.9062 19.4082C31.0469 17.2402 31.0469 10.748 30.9062 8.58007ZM27.7054 21.7344C27.183 22.8828 26.1719 23.7676 24.8527 24.2305C22.8772 24.916 18.1897 24.7578 16.0067 24.7578C13.8237 24.7578 9.12948 24.9101 7.16073 24.2305C5.84823 23.7734 4.83707 22.8887 4.30805 21.7344C3.52457 20.0058 3.70537 15.9043 3.70537 13.9941C3.70537 12.084 3.53127 7.97656 4.30805 6.2539C4.83037 5.10547 5.84153 4.2207 7.16073 3.75781C9.13617 3.07226 13.8237 3.23047 16.0067 3.23047C18.1897 3.23047 22.8839 3.07812 24.8527 3.75781C26.1652 4.21484 27.1763 5.09961 27.7054 6.2539C28.4888 7.98242 28.308 12.084 28.308 13.9941C28.308 15.9043 28.4888 20.0117 27.7054 21.7344Z" fill="black"/>
</svg>
